<svg width="120" height="120" viewBox="0 0 120 120" fill="none" xmlns="http://www.w3.org/2000/svg">
<path d="M120 115.001C120 117.439 118.08 119.512 115.56 119.512L4.44 120C2.04 120 0 118.049 0 115.489C0 113.05 1.92 110.977 4.44 110.977L115.56 110.612C117.96 110.49 120 112.562 120 115.001Z" fill="#95CE5A"/>
<path d="M81.48 0.0238189C84.6 0.145746 83.76 -0.585816 84.72 1.60887V1.7308C85.2 7.82715 85.2 7.82715 86.76 26.2381C87.24 32.5783 87.12 30.2617 87.36 33.188C87.6 31.481 87.96 29.8959 88.2 28.189C88.68 25.6285 92.28 25.7504 92.64 28.3109C93.24 32.3345 93.72 36.3581 94.32 40.3817C95.52 48.7946 95.04 45.6245 95.64 49.892C96.12 48.0631 96.72 46.1122 97.2 44.2833C97.92 41.9667 101.28 42.2106 101.52 44.6491C102 48.9166 102 48.9166 103.56 61.7189L103.68 62.6943C104.16 59.89 104.52 56.9637 105 54.1594L105.12 53.6717C105.84 51.5989 105.84 51.5989 108.24 45.3807C110.4 39.5282 110.52 39.1624 111.24 37.3335C111.36 37.2116 111.48 37.0896 111.72 37.0896L115.2 38.4308C115.32 38.5528 115.32 38.6747 115.44 38.9185C113.4 44.2833 111.48 49.6481 109.44 55.0129C109.44 55.0129 109.44 55.0129 109.44 55.1348C108.84 59.1584 108.24 63.182 107.64 67.2056C106.68 73.4239 106.44 75.3747 106.08 77.0817C105.6 80.1299 101.4 80.0079 101.04 76.9598C100.8 74.5212 100.44 72.2046 99.24 62.3285C98.64 57.4514 98.88 59.5242 98.52 56.2322C98.04 57.9392 97.56 59.6461 97.08 61.3531C96.36 63.6697 93.12 63.4259 92.76 60.9873C92.16 56.9637 92.16 56.9637 90.48 45.0149L90.24 43.3079C89.88 45.1368 89.64 46.9657 89.28 48.7946C88.8 51.8428 84.48 51.5989 84.24 48.5508C83.88 44.6491 83.64 41.9667 82.44 26.7258C81.96 20.9953 82.08 21.8488 81.84 19.6541C81.84 19.2883 81.24 19.1664 81.12 19.6541C80.4 23.19 79.56 26.8478 78.84 30.3836C78.24 33.066 74.52 33.188 73.8 30.5056C73.44 29.0424 73.08 27.5793 72.72 26.1162C72.6 25.7504 72.12 25.7504 72 26.1162C71.52 28.189 71.76 27.2135 70.92 31.3591C68.76 41.479 68.4 43.186 67.92 45.8684C67.32 48.6727 63.36 48.5508 62.88 45.7464C62.76 45.1368 62.64 44.6491 62.64 44.0395C62.52 43.6737 62.04 43.6737 61.92 44.0395C61.56 45.5026 61.68 45.0149 60.84 49.1604C58.2 61.2312 57.96 62.5724 57.24 65.9863C56.64 68.6687 52.92 68.7907 52.2 66.1083L50.88 61.1093L50.4 63.4259C48.96 70.3757 48.72 71.7169 48.24 73.4239C47.64 76.1063 43.92 76.2282 43.2 73.5458C42.72 71.595 42.36 70.2538 40.32 62.8162C39.24 58.7926 39.84 60.8654 38.76 56.8418V56.9637C37.32 60.2558 36.96 61.1093 36.6 61.8408C35.64 64.1574 32.28 63.7916 31.68 61.3531C31.44 60.2558 31.2 59.1584 31.08 58.0611C30.96 57.6953 30.48 57.6953 30.36 58.0611C30.12 59.4023 30.24 58.9146 29.4 63.0601C27.24 74.2774 26.88 76.1063 26.28 79.0325C25.68 81.8368 21.72 81.8368 21.24 79.0325C20.88 77.0817 20.52 75.0089 20.16 73.0581C19.56 75.1309 20.04 73.6677 18.96 77.5694C16.44 87.0797 16.2 88.299 15.48 90.8594C14.88 93.4199 11.28 93.4199 10.56 90.9814C10.44 90.6156 9.95997 90.6156 9.83997 90.9814C9.35997 93.6638 8.87997 96.3462 8.39997 99.0286C8.39997 99.2724 8.15997 99.3943 8.03997 99.2724L4.31997 98.5408C4.07997 98.5408 3.95997 98.297 4.07997 98.1751C4.43997 95.9804 4.91997 93.6638 5.27997 91.4691C5.87997 88.0551 6.47997 84.5192 7.19997 81.1053C7.67997 78.4229 11.4 78.179 12.12 80.8614C12.24 81.3491 12.36 81.7149 12.48 82.2026C12.6 82.5684 13.08 82.5684 13.2 82.2026C13.92 79.3983 13.56 80.7395 14.64 76.594C17.04 67.4495 17.4 65.9863 18 63.6697C18.72 60.9873 22.56 61.1093 23.04 63.9136C23.28 65.3767 23.52 66.8398 23.76 68.3029C24.36 65.4986 23.88 67.3275 24.84 62.4504C27 51.1112 27.36 49.4043 27.96 46.3561C28.44 43.5518 32.4 43.5518 33 46.3561C33.24 47.4534 33.48 48.9166 34.32 53.184L34.68 54.769C35.28 53.3059 36 51.8428 36.6 50.2577C37.56 48.0631 40.8 48.3069 41.4 50.6235C42 52.8182 42.24 53.7936 44.4 61.7189C45.24 64.7671 44.88 63.6697 45.24 64.889L45.72 62.5724C47.16 55.6225 47.4 54.2813 47.76 52.5744C48.36 49.892 52.08 49.77 52.8 52.4524C53.28 54.1594 53.76 55.8664 54.12 57.4514L55.08 52.8182C56.64 45.2587 58.32 37.6993 59.88 30.1398C60.36 27.7013 63.84 27.8232 64.2 30.2617C64.44 31.9687 64.8 33.6757 65.04 35.3827C65.52 33.188 65.16 34.773 66.12 30.5056C68.28 20.0198 68.64 18.5567 69.24 15.7524C69.84 13.07 73.56 12.9481 74.28 15.6305C74.76 17.5813 75.24 19.5321 75.72 21.361C76.32 18.5567 75.96 20.3856 76.8 16.2401C79.08 5.26668 79.08 5.26668 79.92 1.60887V1.48694L80.64 0.267673C81.24 0.145746 81.36 0.0238189 81.48 0.0238189Z" fill="#95CE5A"/>
</svg>
